<svg viewBox="0 0 100 100" width="100" height="100" fill="none" xmlns="http://www.w3.org/2000/svg"><path d="M0 40C0 17.9086 17.9086 0 40 0H80C91.0457 0 100 8.95431 100 20V90C100 95.5228 95.5228 100 90 100H20C8.9543 100 0 91.0457 0 80V40Z" fill="white"></path><path d="M41 77C50.2826 77 59.185 73.3125 65.7487 66.7487C72.3125 60.185 76 51.2826 76 42C76 32.7174 72.3125 23.815 65.7487 17.2513C59.185 10.6875 50.2826 7 41 7C31.7174 7 22.815 10.6875 16.2513 17.2513C9.68749 23.815 6 32.7174 6 42C6 51.2826 9.68749 60.185 16.2513 66.7487C22.815 73.3125 31.7174 77 41 77ZM30.0625 26.6875C30.0625 24.8691 31.5254 23.4062 33.3438 23.4062H44.2812C50.9258 23.4062 56.3125 28.793 56.3125 35.4375C56.3125 42.082 50.9258 47.4688 44.2812 47.4688H36.625V50.75H44.2812C45.4844 50.75 46.4688 51.7344 46.4688 52.9375C46.4688 54.1406 45.4844 55.125 44.2812 55.125H36.625V57.3125C36.625 59.1309 35.1621 60.5938 33.3438 60.5938C31.5254 60.5938 30.0625 59.1309 30.0625 57.3125V55.125H26.7812C25.5781 55.125 24.5938 54.1406 24.5938 52.9375C24.5938 51.7344 25.5781 50.75 26.7812 50.75H30.0625V45.2812H26.7812C25.5781 45.2812 24.5938 44.2969 24.5938 43.0938C24.5938 41.8906 25.5781 40.9062 26.7812 40.9062H30.0625V26.6875ZM44.2812 40.9062C47.3027 40.9062 49.75 38.459 49.75 35.4375C49.75 32.416 47.3027 29.9688 44.2812 29.9688H36.625V40.9062H44.2812Z" fill="#31A73D"></path><path d="M52.9814 54.6299C54.9751 52.8072 57.9278 51.9845 60.7676 52.8369L60.7695 52.8379C72.0824 56.2436 81.4303 58.6228 91.8867 63.457L92.9023 63.9326L92.9131 63.9385L92.9248 63.9434C95.3292 65.1144 96.9183 67.3861 97.208 69.9365L97.2314 70.1846L97.2334 70.2061L97.2344 70.2275C97.393 72.7597 96.2647 74.7549 94.7139 76.2129C93.2254 77.6122 91.2692 78.607 89.3926 79.3516C87.4877 80.1073 85.465 80.6809 83.7227 81.1445C82.4773 81.4759 81.442 81.7385 80.6152 81.9727L76.7871 91.1318L76.7803 91.1494L76.7725 91.166C75.4544 94.1923 72.5737 95.8916 69.6904 96.0713C66.7474 96.2546 63.6495 94.8609 62.0488 91.6533L62.0225 91.6006L61.999 91.5469C59.3671 85.5895 56.9544 79.3008 54.6875 73.3174L54.6777 73.292L54.6689 73.2656C53.4372 69.7856 52.1218 66.2754 50.916 62.7461L50.9082 62.7246L50.9014 62.7021C49.8663 59.4821 50.9245 56.5105 52.9814 54.6299Z" fill="#1B1B1B" stroke="white" stroke-width="5"></path></svg>